<svg xmlns="http://www.w3.org/2000/svg" width="30" height="42" viewBox="0 0 30 42">
  <g id="Vektorový_inteligentní_objekt" data-name="Vektorový inteligentní objekt" transform="translate(-0.938 -0.943)">
    <g id="Group_3" data-name="Group 3">
      <path id="Path_2" data-name="Path 2" d="M11.479,8.586a2.736,2.736,0,0,1,3.8.163,2.587,2.587,0,0,1-.167,3.715l-1.991,1.771L11.312,12.3a2.593,2.593,0,0,1,.166-3.716M30,27.905a3.609,3.609,0,0,0-5.027-.214L17.29,34.569A5.6,5.6,0,0,1,9.5,34.24a5.31,5.31,0,0,1,.339-7.615l2.855-2.558,2.383,2.545a3.617,3.617,0,0,0,5.026.214,3.426,3.426,0,0,0,.222-4.915l-2.382-2.536,1.978-1.784a9.437,9.437,0,0,0,.606-13.543A9.976,9.976,0,0,0,6.671,3.459a9.449,9.449,0,0,0-.6,13.547l1.818,1.935L5.029,21.5a12.161,12.161,0,0,0-.776,17.443,12.682,12.682,0,0,0,8.757,3.995c.381.013.749.013,1.124,0A12.734,12.734,0,0,0,22.1,39.7l7.686-6.884A3.42,3.42,0,0,0,30,27.905" fill="#e13505"/>
    </g>
  </g>
</svg>
